<svg xmlns="http://www.w3.org/2000/svg" viewBox="0 0 2000 2000"><defs><style>.cls-1{fill:#0779bf;}.cls-2{fill:#2990cf;}.cls-3{fill:#37a7df;}.cls-4{fill:#cdebf5;}.cls-5{fill:#56beed;}.cls-6{fill:#abe0f6;}.cls-7{fill:#1a457e;}.cls-8{fill:#00609f;}</style></defs><title>资源 1ldpi</title><g id="图层_2" data-name="图层 2"><g id="Layer_2" data-name="Layer 2"><g id="_编组_" data-name="&lt;编组&gt;"><path id="_路径_" data-name="&lt;路径&gt;" class="cls-1" d="M0,212.14V640c92.81-2.38,183.5-17.1,268.27-52.33,77.15-32.07,149.1-74.88,220.9-117.79-105.1-49.66-192.32-123-300.19-179.6A1124.48,1124.48,0,0,0,0,212.14Z"/><path id="_路径_2" data-name="&lt;路径&gt;" class="cls-1" d="M1602.31,275.54c-97.6,24.47-193.27,55.55-287.51,90.6,92.6,39.62,181.29,87.72,276.23,126.13,129.44,52.36,269.36,78.36,409,77.15V224.89C1867.38,228,1735.13,242.24,1602.31,275.54Z"/></g><path id="_路径_3" data-name="&lt;路径&gt;" class="cls-2" d="M1591,492.27c-94.94-38.41-183.63-86.51-276.23-126.13-62.84-26.89-127.48-49.87-197.11-63.26-13.26-2.55-26.6-4.78-40-6.6C878.38,269,712.49,338.5,545,436.69c-18.65,10.93-37.22,22-55.8,33.14-71.8,42.91-143.75,85.72-220.9,117.79C183.5,622.85,92.81,637.57,0,640V856.68c110.15,66.77,227,118.06,354.33,133C616,1020.28,865.88,892,1112.64,799.81c81.4-30.43,166.15-57.53,253-55.7,182.14,3.83,334.55,130.36,497.63,211.53a1095,1095,0,0,0,136.7,56.72V569.42C1860.39,570.63,1720.47,544.63,1591,492.27Z"/><path id="_路径_4" data-name="&lt;路径&gt;" class="cls-3" d="M1863.3,955.64c-163.08-81.17-315.49-207.7-497.63-211.53-86.88-1.83-171.63,25.27-253,55.7C865.88,892,616,1020.28,354.33,989.64,227,974.74,110.15,923.45,0,856.68v247.38c138.45-36.08,284.08-43.45,424.81-17.58,333.06,61.24,627.13,287.16,979.94,213.15,201.55-42.28,394.9-123.81,595.25-159.5V1012.36A1095,1095,0,0,1,1863.3,955.64Z"/><path id="_路径_5" data-name="&lt;路径&gt;" class="cls-4" d="M768.85,1782.74c-84.26-30.08-162.08-75.66-244.6-110.2-164.56-68.88-347.6-90.22-524.25-66V2000H2000V1568.93c-223.26,36.78-430.19,151.19-649.75,213.18C1160.72,1835.62,954.33,1849,768.85,1782.74Z"/><path id="_路径_6" data-name="&lt;路径&gt;" class="cls-5" d="M424.81,1086.48C284.08,1060.61,138.45,1068,0,1104.06v365.07q56.22-24.18,113.91-44.84c198.79-70.79,413-106,622.23-78,201.25,27,390.61,110.82,589.56,151.51,222.67,45.54,456.32,35.19,674.3-28.68v-329c-200.35,35.69-393.7,117.22-595.25,159.5C1051.94,1373.64,757.87,1147.72,424.81,1086.48Z"/><path id="_路径_7" data-name="&lt;路径&gt;" class="cls-6" d="M1325.7,1497.85c-199-40.69-388.31-124.55-589.56-151.51-209.19-28-423.44,7.16-622.23,78Q56.19,1444.84,0,1469.13v137.43c176.65-24.24,359.69-2.9,524.25,66,82.52,34.54,160.34,80.12,244.6,110.2,185.48,66.21,391.87,52.88,581.4-.63,219.56-62,426.49-176.4,649.75-213.18v-99.76C1782,1533,1548.37,1543.39,1325.7,1497.85Z"/><g id="_编组_2" data-name="&lt;编组&gt;"><path id="_路径_8" data-name="&lt;路径&gt;" class="cls-7" d="M217.15,160.63C306.53,143.72,394.92,122.1,483.82,103,636.33,70.11,793.08,44,949.29,63,1099,81.3,1237,147.65,1384.85,174.27c205,36.9,464.41-3.55,615.15-160.38V0H0V191.35c70-3.7,140.43-16.49,207.52-28.92C210.74,161.84,214,161.23,217.15,160.63Z"/><path id="_路径_9" data-name="&lt;路径&gt;" class="cls-8" d="M1384.85,174.27C1237,147.65,1099,81.3,949.29,63c-156.21-19-313,7.07-465.47,39.91-88.9,19.15-177.29,40.77-266.67,57.68-3.2.6-6.41,1.21-9.63,1.8C140.43,174.86,70,187.65,0,191.35v20.79a1124.48,1124.48,0,0,1,189,78.09c107.87,56.55,195.09,129.94,300.19,179.6,18.58-11.1,37.15-22.21,55.8-33.14C712.49,338.5,878.38,269,1077.71,296.28c13.38,1.82,26.72,4.05,40,6.6,69.63,13.39,134.27,36.37,197.11,63.26,94.24-35.05,189.91-66.13,287.51-90.6,132.82-33.3,265.07-47.55,397.69-50.65v-211C1849.26,170.72,1589.8,211.17,1384.85,174.27Z"/></g></g></g></svg>