<svg xmlns="http://www.w3.org/2000/svg" viewBox="0 0 1018.21 326.31"><defs><style>.cls-1{fill:#6cf;}.cls-2{font-size:123.7px;fill:#0074d3;font-family:Superclarendon-Regular, Superclarendon;}.cls-3{letter-spacing:-0.03em;}.cls-4{letter-spacing:0em;}</style></defs><title>资源 1ldpi</title><g id="图层_2" data-name="图层 2"><g id="图层_1-2" data-name="图层 1"><path class="cls-1" d="M154,167.72,280,83.78v-5A43.75,43.75,0,0,0,236.24,35H210V13.38A13.33,13.33,0,0,0,196.61,0a13.12,13.12,0,0,0-12.86,13.12V35H96.25V13.38A13.33,13.33,0,0,0,82.87,0,13.13,13.13,0,0,0,70,13.12V35H43.75A43.75,43.75,0,0,0,0,78.75V91.67l125.27,76.6A26.68,26.68,0,0,0,154,167.72Z"/><path class="cls-1" d="M194.24,161l74.85,104.11a43.61,43.61,0,0,0,10.9-28.9V103.91Z"/><path class="cls-1" d="M180.29,170.32l-23.86,15.89a30.56,30.56,0,0,1-32.89.64L98.73,171.67,24.17,275.38A43.6,43.6,0,0,0,43.75,280H236.24a43.6,43.6,0,0,0,19.58-4.61Z"/><path class="cls-1" d="M0,111.3V236.24a43.57,43.57,0,0,0,10.91,28.9L84.4,162.91Z"/><text class="cls-2" transform="translate(329.19 140.79)">Remi<tspan class="cls-3" x="360.96" y="0">n</tspan><tspan class="cls-4" x="452.25" y="0">der</tspan><tspan class="cls-1"><tspan x="0" y="127">Express</tspan></tspan></text></g></g></svg>